<?xml version="1.0" encoding="UTF-8"?>
<svg width="363px" height="97px" viewBox="0 0 363 97" version="1.1" xmlns="http://www.w3.org/2000/svg" xmlns:xlink="http://www.w3.org/1999/xlink">
    <!-- Generator: Sketch 43.2 (39069) - http://www.bohemiancoding.com/sketch -->
    <title>nacionfarma</title>
    <desc>Created with Sketch.</desc>
    <defs></defs>
    <g id="Page-1" stroke="none" stroke-width="1" fill="none" fill-rule="evenodd">
        <g id="nacionfarma" fill="#FFFFFF">
            <path d="M48.5,0 C75.3,0 97,21.7 97,48.5 C97,75.3 75.3,97 48.5,97 C21.7,97 0,75.3 0,48.5 C0,21.7 21.7,0 48.5,0 Z M68.5935516,21.9246575 L28.4064484,21.9246575 C28.1291574,21.9246575 27.9041096,22.1492944 27.9041096,22.4260791 L27.9041096,74.5739209 C27.9041096,74.8507056 28.1291574,75.0753425 28.4064484,75.0753425 L68.5935516,75.0753425 C68.8708426,75.0753425 69.0958904,74.8507056 69.0958904,74.5739209 L69.0958904,22.4260791 C69.0958904,22.1492944 68.8708426,21.9246575 68.5935516,21.9246575 Z M68.4315068,74.4109589 L29.2328767,74.4109589 L29.2328767,23.2534247 L68.4315068,23.2534247 L68.4315068,74.4109589 Z M32.3937318,29.2328767 L64.6062682,29.2328767 C64.8841013,29.2328767 65.109589,28.9352329 65.109589,28.5684932 C65.109589,28.2017534 64.8841013,27.9041096 64.6062682,27.9041096 L32.3937318,27.9041096 C32.1158987,27.9041096 31.890411,28.2017534 31.890411,28.5684932 C31.890411,28.9352329 32.1158987,29.2328767 32.3937318,29.2328767 Z M32.398469,59.130137 L48.6563255,59.130137 C48.9367736,59.130137 49.1643836,58.9039277 49.1643836,58.6252055 L49.1643836,34.3884932 C49.1643836,34.109771 48.9367736,33.8835616 48.6563255,33.8835616 L32.398469,33.8835616 C32.118021,33.8835616 31.890411,34.109771 31.890411,34.3884932 L31.890411,58.6252055 C31.890411,58.9039277 32.118021,59.130137 32.398469,59.130137 Z M64.5985248,33.8835616 L52.3329821,33.8835616 C52.0508746,33.8835616 51.8219178,34.1812055 51.8219178,34.5479452 C51.8219178,34.9146849 52.0508746,35.2123288 52.3329821,35.2123288 L64.5985248,35.2123288 C64.8806322,35.2123288 65.109589,34.9146849 65.109589,34.5479452 C65.109589,34.1812055 64.8806322,33.8835616 64.5985248,33.8835616 Z M64.5985248,37.869863 L52.3329821,37.869863 C52.0508746,37.869863 51.8219178,38.1675068 51.8219178,38.5342466 C51.8219178,38.9009863 52.0508746,39.1986301 52.3329821,39.1986301 L64.5985248,39.1986301 C64.8806322,39.1986301 65.109589,38.9009863 65.109589,38.5342466 C65.109589,38.1675068 64.8806322,37.869863 64.5985248,37.869863 Z M64.5985248,41.8561644 L52.3329821,41.8561644 C52.0508746,41.8561644 51.8219178,42.1538082 51.8219178,42.5205479 C51.8219178,42.8872877 52.0508746,43.1849315 52.3329821,43.1849315 L64.5985248,43.1849315 C64.8806322,43.1849315 65.109589,42.8872877 65.109589,42.5205479 C65.109589,42.1538082 64.8806322,41.8561644 64.5985248,41.8561644 Z M64.5985248,45.8424658 L52.3329821,45.8424658 C52.0508746,45.8424658 51.8219178,46.1401096 51.8219178,46.5068493 C51.8219178,46.873589 52.0508746,47.1712329 52.3329821,47.1712329 L64.5985248,47.1712329 C64.8806322,47.1712329 65.109589,46.873589 65.109589,46.5068493 C65.109589,46.1401096 64.8806322,45.8424658 64.5985248,45.8424658 Z M64.5985248,49.8287671 L52.3329821,49.8287671 C52.0508746,49.8287671 51.8219178,50.126411 51.8219178,50.4931507 C51.8219178,50.8598904 52.0508746,51.1575342 52.3329821,51.1575342 L64.5985248,51.1575342 C64.8806322,51.1575342 65.109589,50.8598904 65.109589,50.4931507 C65.109589,50.126411 64.8806322,49.8287671 64.5985248,49.8287671 Z M64.5985248,53.8150685 L52.3329821,53.8150685 C52.0508746,53.8150685 51.8219178,54.1127123 51.8219178,54.4794521 C51.8219178,54.8461918 52.0508746,55.1438356 52.3329821,55.1438356 L64.5985248,55.1438356 C64.8806322,55.1438356 65.109589,54.8461918 65.109589,54.4794521 C65.109589,54.1127123 64.8806322,53.8150685 64.5985248,53.8150685 Z M64.5985248,57.8013699 L52.3329821,57.8013699 C52.0508746,57.8013699 51.8219178,58.0990137 51.8219178,58.4657534 C51.8219178,58.8324932 52.0508746,59.130137 52.3329821,59.130137 L64.5985248,59.130137 C64.8806322,59.130137 65.109589,58.8324932 65.109589,58.4657534 C65.109589,58.0990137 64.8806322,57.8013699 64.5985248,57.8013699 Z M64.5985248,61.7876712 L52.3329821,61.7876712 C52.0508746,61.7876712 51.8219178,62.0853151 51.8219178,62.4520548 C51.8219178,62.8187945 52.0508746,63.1164384 52.3329821,63.1164384 L64.5985248,63.1164384 C64.8806322,63.1164384 65.109589,62.8187945 65.109589,62.4520548 C65.109589,62.0853151 64.8806322,61.7876712 64.5985248,61.7876712 Z M64.5985248,65.7739726 L52.3329821,65.7739726 C52.0508746,65.7739726 51.8219178,66.0716164 51.8219178,66.4383562 C51.8219178,66.8050959 52.0508746,67.1027397 52.3329821,67.1027397 L64.5985248,67.1027397 C64.8806322,67.1027397 65.109589,66.8050959 65.109589,66.4383562 C65.109589,66.0716164 64.8806322,65.7739726 64.5985248,65.7739726 Z M64.5985248,69.760274 L52.3329821,69.760274 C52.0508746,69.760274 51.8219178,70.0579178 51.8219178,70.4246575 C51.8219178,70.7913973 52.0508746,71.0890411 52.3329821,71.0890411 L64.5985248,71.0890411 C64.8806322,71.0890411 65.109589,70.7913973 65.109589,70.4246575 C65.109589,70.0579178 64.8806322,69.760274 64.5985248,69.760274 Z M32.398469,63.1164384 L48.6563255,63.1164384 C48.9367736,63.1164384 49.1643836,62.8187945 49.1643836,62.4520548 C49.1643836,62.0853151 48.9367736,61.7876712 48.6563255,61.7876712 L32.398469,61.7876712 C32.118021,61.7876712 31.890411,62.0853151 31.890411,62.4520548 C31.890411,62.8187945 32.118021,63.1164384 32.398469,63.1164384 Z M32.398469,67.1027397 L48.6563255,67.1027397 C48.9367736,67.1027397 49.1643836,66.8050959 49.1643836,66.4383562 C49.1643836,66.0716164 48.9367736,65.7739726 48.6563255,65.7739726 L32.398469,65.7739726 C32.118021,65.7739726 31.890411,66.0716164 31.890411,66.4383562 C31.890411,66.8050959 32.118021,67.1027397 32.398469,67.1027397 Z M32.398469,71.0890411 L48.6563255,71.0890411 C48.9367736,71.0890411 49.1643836,70.7913973 49.1643836,70.4246575 C49.1643836,70.0579178 48.9367736,69.760274 48.6563255,69.760274 L32.398469,69.760274 C32.118021,69.760274 31.890411,70.0579178 31.890411,70.4246575 C31.890411,70.7913973 32.118021,71.0890411 32.398469,71.0890411 Z" id="Combined-Shape-Copy"></path>
            <path d="M131.9,46.3 L121.9,46.3 L121.9,56.9 L131.55,56.9 C135.5,56.9 137.5,55.1 137.5,51.55 C137.5,48.3 135.3,46.3 131.9,46.3 Z M121.9,31.9 L121.9,41.55 L131.2,41.55 C134.8,41.55 136.6,39.95 136.6,36.7 C136.6,33.5 134.8,31.9 131.2,31.9 L121.9,31.9 Z M142.95,51.9 C142.95,58.65 138.6,62 132.2,62 L120.7,62 C118.1,62 116.55,60.25 116.55,57.9 L116.55,30.95 C116.55,28.6 118.1,26.85 120.7,26.85 L131.85,26.85 C135,26.85 137.5,27.75 139.25,29.5 C141.05,31.25 141.95,33.4 141.95,36 C141.95,39.85 140.45,42.45 137.4,43.7 L137.4,43.75 C140.85,44.75 142.95,47.75 142.95,51.9 Z M160.6,48.95 L155.4,48.95 L155.4,59.45 C155.4,61 154.15,62.25 152.7,62.25 C151.25,62.25 150.05,61 150.05,59.45 L150.05,30.75 C150.05,28.5 151.5,26.85 153.95,26.85 L164.15,26.85 C167.5,26.85 170.25,27.85 172.45,29.8 C174.7,31.75 175.8,34.45 175.8,37.9 C175.8,43.55 172.8,46.8 168.05,47.8 L176.15,57.7 C177.1,58.75 177,60.55 176,61.5 C174.8,62.55 173.15,62.5 172.15,61.35 L163.4,50.55 C162.45,49.4 161.85,48.95 160.6,48.95 Z M155.4,32.05 L155.4,43.85 L163.55,43.85 C168.1,43.85 170.4,41.9 170.4,37.95 C170.4,34 168.2,32.05 163.8,32.05 L155.4,32.05 Z M188.1,26.85 C185.5,26.85 183.95,28.55 183.95,30.9 L183.95,57.9 C183.95,60.25 185.5,62 188.1,62 L205,62 C206.55,62 207.7,60.8 207.7,59.35 C207.7,57.95 206.4,56.7 205,56.7 L189.35,56.7 L189.35,46.8 L204.45,46.8 C205.7,46.8 206.95,45.65 206.95,44.3 C206.95,42.85 205.85,41.8 204.45,41.8 L189.35,41.8 L189.35,32.15 L204.85,32.15 C206.3,32.15 207.6,30.9 207.6,29.45 C207.6,28 206.4,26.85 204.85,26.85 L188.1,26.85 Z M243.75,59.3 C243.75,60.75 242.7,62.1 241.1,62.1 C239.85,62.1 239.05,61.5 238.6,60.35 L235.3,51 L220.3,51 L217,60.4 C216.55,61.55 215.75,62.1 214.5,62.1 C212.9,62.1 211.9,60.85 211.9,59.4 C211.9,59.05 211.95,58.7 212.05,58.4 L222.05,30.6 C223.05,27.75 225,26.3 227.85,26.3 C230.7,26.3 232.6,27.75 233.65,30.6 L243.6,58.4 C243.7,58.7 243.75,59 243.75,59.3 Z M226.8,32.55 L222,46.1 L233.6,46.1 L228.85,32.55 C228.7,32.05 228.35,31.8 227.85,31.8 C227.3,31.8 226.95,32.05 226.8,32.55 Z M273.05,62.15 C275.45,62.15 276.45,59.3 274.9,57.55 L261.35,44.05 L274.75,31.1 C275.25,30.6 275.5,30 275.5,29.35 C275.5,28.65 275.25,28.05 274.75,27.5 C274.3,26.95 273.75,26.7 273,26.7 C272.2,26.7 271.5,27 270.95,27.6 L257.9,40.5 C256.85,41.5 256.3,41.65 254.85,41.65 L254.85,29.45 C254.85,27.9 253.7,26.7 252.15,26.7 C250.7,26.7 249.45,28 249.45,29.45 L249.45,59.45 C249.45,60.9 250.7,62.2 252.15,62.2 C253.7,62.2 254.85,61 254.85,59.45 L254.85,46.9 C256.4,46.9 256.9,47 257.9,48.05 L271.15,61.3 C271.7,61.85 272.35,62.15 273.05,62.15 Z M281.5,59.45 C281.5,60.9 282.75,62.2 284.2,62.2 C285.75,62.2 286.9,61 286.9,59.45 L286.9,29.45 C286.9,27.9 285.75,26.7 284.2,26.7 C282.75,26.7 281.5,28 281.5,29.45 L281.5,59.45 Z M304.4,29.15 C303.45,27.55 302.05,26.75 300.2,26.75 C297.65,26.75 295.95,28.7 295.95,31.25 L295.95,59.4 C295.95,60.85 297.15,62.15 298.6,62.15 C300.15,62.15 301.3,60.95 301.3,59.4 L301.3,41.5 C301.3,39.75 301.3,37.75 301.15,35.7 C301.1,34.65 301.1,33.9 301.1,33.45 L301.25,33.45 L317,59.85 C317.95,61.4 319.3,62.15 321.1,62.15 C323.55,62.15 325.25,60.2 325.25,57.75 L325.25,29.45 C325.25,27.9 324.05,26.7 322.6,26.7 C321.15,26.7 319.9,27.9 319.9,29.45 L319.9,47.4 C319.9,49.25 319.95,51.2 320,53.15 C320.05,54.1 320.1,54.8 320.1,55.2 L320,55.2 L304.4,29.15 Z M362.15,46.8 C362.15,44.55 360.7,42.85 358.15,42.85 L350.9,42.85 C349.45,42.85 348.3,43.95 348.3,45.4 C348.3,46.8 349.45,48 350.9,48 L356.9,48 L356.9,50.4 C356.9,54.4 353.55,57.4 348.4,57.4 C345.7,57.4 343.5,56.55 341.75,54.85 C340,53.1 339,50.85 338.75,48.1 C338.55,45.75 338.55,43.4 338.75,40.95 C339.3,35.3 342.95,31.45 348.3,31.45 C351.95,31.45 354.7,33.1 356.45,36.45 C357,37.35 357.75,37.8 358.7,37.8 C360.1,37.8 361.3,36.6 361.3,35.25 C361.3,34.7 361.15,34.25 360.9,33.8 C358.5,29.15 353.9,26.35 348.25,26.35 C344.2,26.35 340.75,27.7 338,30.4 C335.25,33.1 333.7,36.45 333.4,40.45 C333.15,43.1 333.15,45.75 333.4,48.45 C333.7,52.5 335.25,55.85 338,58.55 C340.75,61.2 344.2,62.55 348.25,62.55 C352.3,62.55 355.6,61.35 358.2,58.9 C360.85,56.45 362.15,53.4 362.15,49.85 L362.15,46.8 Z" id="BREAKING"></path>
        </g>
    </g>
</svg>